<?xml version="1.0" standalone="no"?>
<!DOCTYPE svg PUBLIC "-//W3C//DTD SVG 20010904//EN"
 "http://www.w3.org/TR/2001/REC-SVG-20010904/DTD/svg10.dtd">
<svg version="1.0" xmlns="http://www.w3.org/2000/svg"
 width="2000.000000pt" height="500.000000pt" viewBox="0 0 2000.000000 500.000000"
 preserveAspectRatio="xMidYMid meet">

<g transform="translate(0.000000,500.000000) scale(0.100000,-0.100000)"
fill="#000000" stroke="none">
<path d="M14430 2518 c-1361 -1364 -2476 -2485 -2478 -2489 -2 -5 666 -9 1535
-9 l1538 0 2150 2152 c1183 1184 2301 2305 2485 2491 l335 337 -1545 0 -1545
-1 -2475 -2481z"/>
<path d="M6540 4983 c-838 -61 -1537 -281 -2055 -646 -159 -112 -373 -309
-1160 -1066 -693 -666 -3315 -3236 -3315 -3248 0 -2 634 -3 1409 -3 l1408 0
1209 1151 c665 634 1268 1208 1339 1278 370 359 799 572 1275 631 57 7 1332
10 3999 10 l3914 0 491 485 c270 266 703 693 961 949 l470 465 -4950 -1
c-2722 -1 -4970 -3 -4995 -5z"/>
<path d="M6910 2819 c-319 -37 -602 -118 -840 -240 -200 -103 -277 -169 -849
-719 -362 -349 -1091 -1062 -1521 -1487 l-355 -352 1303 -1 1304 0 385 378
c227 222 417 400 464 434 158 113 355 198 550 238 95 20 142 20 2641 20 l2543
1 875 869 875 869 -3650 -1 c-2007 0 -3684 -4 -3725 -9z"/>
<path d="M16310 555 l0 -45 95 0 95 0 0 -255 0 -256 63 3 62 3 3 253 2 252 90
0 90 0 0 45 0 45 -250 0 -250 0 0 -45z"/>
<path d="M16900 300 l0 -300 55 0 55 0 0 232 c0 131 4 228 9 223 4 -6 34 -110
66 -233 l58 -222 58 0 c46 0 59 3 63 18 3 9 30 111 60 226 31 115 58 211 61
214 3 3 5 -99 5 -227 l0 -232 58 3 57 3 3 298 2 298 -97 -3 -98 -3 -54 -198
c-30 -109 -58 -194 -61 -190 -6 6 -55 178 -108 376 -4 15 -17 17 -98 17 l-94
0 0 -300z"/>
</g>
</svg>
